<?xml version="1.0" encoding="UTF-8"?>
<svg width="103.54mm" height="57.337mm" version="1.1" viewBox="0 0 103.54 57.337" xmlns="http://www.w3.org/2000/svg" xmlns:cc="http://creativecommons.org/ns#" xmlns:dc="http://purl.org/dc/elements/1.1/" xmlns:rdf="http://www.w3.org/1999/02/22-rdf-syntax-ns#">
 <defs>
  <marker id="marker1279" overflow="visible" orient="auto">
   <path transform="matrix(-.4 0 0 -.4 -4 0)" d="m0 0 5-5-17.5 5 17.5 5z" fill-rule="evenodd" stroke="#000" stroke-width="1pt"/>
  </marker>
  <marker id="marker1269" overflow="visible" orient="auto">
   <path transform="matrix(-.4 0 0 -.4 -4 0)" d="m0 0 5-5-17.5 5 17.5 5z" fill-rule="evenodd" stroke="#000" stroke-width="1pt"/>
  </marker>
  <marker id="marker1259" overflow="visible" orient="auto">
   <path transform="matrix(-.4 0 0 -.4 -4 0)" d="m0 0 5-5-17.5 5 17.5 5z" fill-rule="evenodd" stroke="#000" stroke-width="1pt"/>
  </marker>
  <marker id="marker1249" overflow="visible" orient="auto">
   <path transform="matrix(-.4 0 0 -.4 -4 0)" d="m0 0 5-5-17.5 5 17.5 5z" fill-rule="evenodd" stroke="#000" stroke-width="1pt"/>
  </marker>
  <marker id="marker1239" overflow="visible" orient="auto">
   <path transform="matrix(-.4 0 0 -.4 -4 0)" d="m0 0 5-5-17.5 5 17.5 5z" fill-rule="evenodd" stroke="#000" stroke-width="1pt"/>
  </marker>
  <marker id="marker1229" overflow="visible" orient="auto">
   <path transform="matrix(-.4 0 0 -.4 -4 0)" d="m0 0 5-5-17.5 5 17.5 5z" fill-rule="evenodd" stroke="#000" stroke-width="1pt"/>
  </marker>
 </defs>
 <metadata>
  <rdf:RDF>
   <cc:Work rdf:about="">
    <dc:format>image/svg+xml</dc:format>
    <dc:type rdf:resource="http://purl.org/dc/dcmitype/StillImage"/>
    <dc:title/>
   </cc:Work>
  </rdf:RDF>
 </metadata>
 <g transform="translate(-52.276 -41.346)">
  <rect x="55.756" y="41.5" width="43.029" height="21.485" fill="#fff7d9" stroke="#d16f10" stroke-width=".30776"/>
  <g stroke-width=".13442" aria-label="训练数据">
   <path d="m69.133 43.609v4.2048h0.37101v-4.2048zm1.1238-0.26347v4.8339h0.38176v-4.8339zm-2.1938 0.01613v2.3659c-0.01075 1.0162-0.22583 1.7529-0.65599 2.2153l0.29036 0.25809c0.47855-0.52157 0.72589-1.3442 0.73664-2.4734v-2.3659zm-1.4894-0.0699-0.26885 0.26347c0.38714 0.29036 0.69901 0.56996 0.92484 0.83343l0.26347-0.26885c-0.24734-0.2796-0.55383-0.55383-0.91946-0.82805zm-0.6291 1.5916v0.37101h0.79042v2.0916c0 0.09141-0.04302 0.17206-0.11829 0.24196l0.15056 0.34413c0.32262-0.23659 0.62373-0.50544 0.90871-0.80655l-0.10216-0.40327c-0.16131 0.17206-0.31724 0.328-0.4678 0.4678v-2.3067z"/>
   <path d="m73.55 47.077c-0.48393 0.20432-1.0593 0.37101-1.7153 0.4893l0.04839 0.38714c0.62373-0.12905 1.1829-0.29036 1.6669-0.49468zm-0.81192-3.8284c-0.19357 0.63448-0.4194 1.1937-0.68825 1.683-0.04839 0.0699-0.10216 0.11829-0.16669 0.15056l0.09678 0.35488c0.2796-0.04839 0.55383-0.10216 0.82805-0.15593-0.26885 0.50544-0.50006 0.86032-0.68825 1.0754-0.04839 0.04302-0.10754 0.08065-0.17206 0.11292l0.10216 0.36026c0.49468-0.07528 1.0055-0.2097 1.5432-0.41403v-0.3495c-0.36026 0.13442-0.72051 0.24196-1.0808 0.31724 0.29036-0.38176 0.66674-1.0216 1.1184-1.9196l-0.35488-0.13442c-0.09678 0.2097-0.19357 0.40865-0.29036 0.60222-0.21508 0.04302-0.43016 0.08065-0.64524 0.11292 0.2581-0.41403 0.51081-0.96248 0.76891-1.6507zm1.4625 3.2369c-0.15593 0.44091-0.38176 0.87107-0.6775 1.2958l0.33337 0.18819c0.25809-0.37101 0.48393-0.8173 0.68288-1.3442zm2.0164-0.0054-0.34413 0.11292c0.21508 0.3979 0.41403 0.85494 0.59147 1.3711l0.328-0.14518c-0.16131-0.47317-0.35488-0.91946-0.57534-1.3389zm-1.1991 1.64c0.30649 0 0.46242-0.14518 0.46242-0.43016v-1.5163h1.1453v-0.3441h-1.1453v-1.0431h-0.72051c0.06452-0.18282 0.12905-0.38176 0.19357-0.58609h1.6722v-0.36026h-1.5647c0.04839-0.17206 0.09678-0.3495 0.14518-0.5377l-0.37639-0.0699c-0.05377 0.2097-0.10216 0.41403-0.15593 0.6076h-1.1937v0.36026h1.0861c-0.06452 0.20432-0.12905 0.3979-0.19357 0.58609h-0.69901v0.3495h0.5592c-0.11292 0.25809-0.23121 0.49468-0.3495 0.70438l0.08603 0.33337h1.1399v1.398c0 0.1398-0.0699 0.2097-0.20432 0.2097l-0.51619-0.01613 0.09678 0.35488zm-0.39252-2.9842h0.48393v0.69363h-0.79579c0.10754-0.21508 0.2097-0.44629 0.31186-0.69363z"/>
   <path d="m81.053 44.431h0.79579c-0.02151 0.72589-0.13442 1.3604-0.34413 1.9034-0.21508-0.45167-0.38714-0.99474-0.52157-1.6238zm0.27423 2.2906c-0.24734 0.45704-0.57534 0.82805-0.99474 1.1184l0.19895 0.32262c0.40327-0.29036 0.73664-0.65061 0.99474-1.0808 0.26885 0.45166 0.59147 0.8173 0.96785 1.0861l0.2097-0.31724c-0.38714-0.26347-0.71514-0.63448-0.99474-1.1184 0.30111-0.63448 0.4678-1.4034 0.49468-2.3013h0.3495v-0.37101h-1.4195c0.04302-0.23659 0.08603-0.49468 0.11829-0.76891l-0.37639-0.06452c-0.10754 1.0216-0.32262 1.8335-0.63986 2.4358l0.24196 0.29573c0.11292-0.19357 0.22046-0.41403 0.31724-0.66137 0.14518 0.5377 0.32262 1.0109 0.53232 1.4249zm-2.5487-0.98399c-0.03764 0.10754-0.08065 0.22046-0.12905 0.33875h-0.78504v0.33875h0.63448c-0.10754 0.21508-0.23121 0.43554-0.37101 0.67212 0.26347 0.09679 0.51081 0.19895 0.7474 0.30111-0.31186 0.17744-0.69363 0.32262-1.1345 0.44091l0.18282 0.32262c0.5377-0.15056 0.98399-0.3495 1.3389-0.59684 0.31724 0.1398 0.59147 0.28498 0.82805 0.42478l0.2097-0.30111c-0.23659-0.12905-0.48393-0.24734-0.74202-0.36563 0.2796-0.25809 0.47855-0.56458 0.59684-0.91946v-0.31724h-1.1238c0.03226-0.09679 0.0699-0.19357 0.10754-0.29573zm0.42478 1.4249c-0.19357-0.08065-0.3979-0.15593-0.61298-0.23121 0.10754-0.16131 0.20432-0.33337 0.29036-0.51619h0.92484c-0.12905 0.2796-0.33337 0.53232-0.60222 0.7474zm-0.91408-3.823-0.30649 0.10216c0.12905 0.20432 0.24734 0.43554 0.36026 0.69901l0.2796-0.12905c-0.09678-0.23659-0.20432-0.46242-0.33337-0.67212zm1.6346-0.01613c-0.09679 0.22583-0.23659 0.45166-0.40865 0.68288l0.27423 0.1398c0.17206-0.22583 0.30649-0.45704 0.41403-0.69363zm-2.0486 0.94635v0.33875h0.76353c-0.16131 0.29573-0.45166 0.56458-0.86569 0.80654l0.18819 0.31186c0.46242-0.31186 0.78504-0.6775 0.96248-1.1023v1.0216h0.36026v-0.69901c0.19357 0.12905 0.42478 0.30111 0.69363 0.51619l0.19895-0.30111c-0.30111-0.18282-0.60222-0.3495-0.89258-0.49468v-0.05915h0.97861v-0.33875h-0.97861v-1.027h-0.36026v1.027z"/>
   <path d="m84.303 48.12c0.30111 0 0.45166-0.16131 0.45166-0.47317v-1.5701c0.16669-0.07528 0.33337-0.15056 0.50006-0.23659v-0.38176c-0.16131 0.08603-0.328 0.16669-0.50006 0.24196v-1.0593h0.51619v-0.37101h-0.51619v-1.0162h-0.37639v1.0162h-0.64524v0.37101h0.64524v1.2152c-0.23659 0.08603-0.48393 0.16131-0.73127 0.22046l0.09678 0.37639c0.2097-0.06452 0.4194-0.1398 0.63448-0.22046v1.3174c0 0.15056-0.0699 0.23121-0.20432 0.23121-0.12905 0-0.26885-0.01075-0.40865-0.02689l0.08065 0.36563zm1.6077-2.3766h1.0969v0.66137h-0.89795v1.7636h0.36026v-0.26347h1.4572v0.26347h0.36026v-1.7636h-0.90333v-0.66137h1.1507v-0.3495h-1.1507v-0.63448h1.0109v-1.3066h-2.8337v1.683c-0.0054 1.1292-0.19895 2.054-0.58071 2.7638l0.30111 0.26885c0.35488-0.69901 0.56458-1.5056 0.62911-2.425zm1.0969-0.98398v0.63448h-1.0754c0-0.08603 0.0054-0.17206 0.0054-0.25809v-0.37639zm-0.5377 2.8014v-0.81192h1.4572v0.81192zm1.5486-3.7477v0.59684h-2.0809v-0.59684z"/>
  </g>
  <rect x="55.756" y="69.864" width="42.955" height="28.665" fill="#d9f8ff" stroke="#1067d1" stroke-width=".30776"/>
  <rect x="59.607" y="50.924" width="14.693" height="8.5152" fill="#fff" stroke="#d16f10" stroke-width=".26458"/>
  <g stroke-width=".13442" aria-label="样本">
   <path d="m64.768 54.182v0.79041h-1.0485v0.36563h1.0485v0.81192h-1.3389v0.37101h1.3389v1.269h0.38714v-1.269h1.3658v-0.37101h-1.3658v-0.81192h1.0646v-0.36563h-1.0646v-0.79041h1.2259v-0.36563h-0.79041c0.15593-0.24734 0.30111-0.53232 0.43016-0.85494l-0.37101-0.12905c-0.12905 0.3495-0.27422 0.6775-0.44091 0.98399h-0.84418l0.30649-0.15056c-0.15056-0.29036-0.30649-0.5592-0.4678-0.80655l-0.32262 0.15056c0.16131 0.23659 0.31724 0.50544 0.4678 0.80655h-0.79579v0.36563zm-1.9733 0.85494c0.1398 0.18282 0.29573 0.41403 0.47855 0.69901l0.2097-0.31186c-0.23659-0.30111-0.46242-0.57534-0.68825-0.8173v-0.33875h0.5377v-0.37101h-0.5377v-1.0485h-0.37101v1.0485h-0.67212v0.37101h0.64524c-0.16669 0.67212-0.44091 1.2636-0.8173 1.7798l0.19895 0.32262c0.26347-0.40327 0.47855-0.84956 0.64524-1.3389v2.7476h0.37101z"/>
   <path d="m67.68 53.833v0.37101h1.7583c-0.3979 0.95172-1.0431 1.7314-1.9465 2.3336l0.22046 0.36026c0.9571-0.70438 1.6346-1.6023 2.0325-2.6939h0.03764v2.097h-1.1077v0.37101h1.1077v1.1023h0.3979v-1.1023h1.1507v-0.37101h-1.1507v-2.097h0.04302c0.36563 0.97323 1.0216 1.8497 1.968 2.624l0.26347-0.33337c-0.92484-0.67212-1.5701-1.4357-1.9303-2.2906h1.7529v-0.37101h-2.097v-0.97323h-0.3979v0.97323z"/>
  </g>
  <rect x="79.726" y="50.924" width="14.693" height="8.5152" fill="#fff" stroke="#d16f10" stroke-width=".26458"/>
  <g stroke-width=".13442" aria-label="标签">
   <path d="m82.517 52.909v1.0162h-0.65599v0.37101h0.65599c-0.16669 0.6775-0.44091 1.2851-0.82805 1.812l0.16669 0.4194c0.26885-0.4194 0.4893-0.88182 0.66137-1.3873v2.6777h0.38176v-2.6939c0.16131 0.20432 0.3495 0.47317 0.56996 0.81192l0.22046-0.328c-0.26347-0.328-0.52694-0.62911-0.79042-0.89795v-0.41403h0.62373v-0.37101h-0.62373v-1.0162zm1.5862 2.4304c-0.15056 0.66674-0.39252 1.269-0.72589 1.812l0.33337 0.21508c0.32262-0.54845 0.57534-1.1937 0.7474-1.9465zm1.9465-0.02689-0.3495 0.11292c0.2097 0.58071 0.40327 1.2421 0.58071 1.9895l0.3495-0.15593c-0.16131-0.68825-0.35488-1.3389-0.58071-1.9465zm-1.2044 2.4519c0.31186 0 0.47317-0.16131 0.47317-0.47855v-2.3928h1.3174v-0.37101h-3.0165v0.37101h1.312v2.296c0 0.15593-0.07528 0.23659-0.22046 0.23659-0.15593 0-0.31724-0.01075-0.4893-0.02151l0.07528 0.36026zm-0.94097-4.5489v0.36563h2.4519v-0.36563z"/>
   <path d="m91.343 55.974c-0.16131 0.50544-0.34413 0.94097-0.55383 1.3066h-2.9681v0.36026h4.5382v-0.36026h-1.156c0.20432-0.35488 0.37639-0.75815 0.51619-1.2044zm-2.5702 0.06452-0.3495 0.11292c0.17206 0.31186 0.31186 0.63986 0.4194 0.98398l0.3495-0.09141c-0.12367-0.37639-0.26347-0.71514-0.4194-1.0055zm1.2421-0.10754-0.35488 0.11292c0.1398 0.33337 0.25272 0.68288 0.34413 1.0485l0.34413-0.09141c-0.096785-0.40327-0.2097-0.75815-0.33337-1.07zm-1.3227-0.51619v0.34413h2.7906v-0.34412zm-0.21508-1.7153h0.40865c0.09679 0.2097 0.17744 0.43016 0.24734 0.65599l0.35488-0.12905c-0.05377-0.16131-0.12905-0.33875-0.21508-0.52694h0.77428v-0.34413h-1.4141c0.04839-0.12905 0.09678-0.25809 0.1398-0.3979l-0.37639-0.08066c-0.15056 0.49468-0.39252 0.94635-0.72589 1.355l0.33337 0.2097c0.17744-0.22583 0.33337-0.47317 0.47317-0.74202zm2.2637 0h0.4678c0.11829 0.22583 0.22583 0.46242 0.32262 0.70438l0.35488-0.12905c-0.0699-0.18282-0.16131-0.37101-0.2796-0.57534h0.85494v-0.34413h-1.5701c0.04302-0.12905 0.08603-0.25809 0.12905-0.3979l-0.37101-0.08066c-0.11292 0.4194-0.29573 0.79579-0.54845 1.1399l0.328 0.2097c0.11292-0.16131 0.21508-0.33875 0.31186-0.52694zm-0.77966 0.53232c-0.61835 0.45704-1.3926 0.83881-2.3175 1.1507l0.18282 0.33337c0.93559-0.328 1.6884-0.71514 2.2583-1.1668 0.62373 0.48393 1.3711 0.87107 2.253 1.1722l0.18819-0.33337c-0.87645-0.2796-1.6507-0.66674-2.3175-1.156z"/>
  </g>
  <g stroke-width=".13442" aria-label="网络模型">
   <path d="m68.15 95.737 0.25809-0.25809c-0.21508-0.33337-0.43016-0.63986-0.63448-0.91946 0.1398-0.45704 0.25272-0.96248 0.33875-1.5163l-0.35488-0.06452c-0.06452 0.43016-0.15056 0.83881-0.25272 1.2152-0.22583-0.30111-0.44091-0.55383-0.63986-0.76353l-0.24196 0.23121c0.24734 0.28498 0.50006 0.59684 0.75815 0.94097-0.18282 0.54307-0.41403 1.0162-0.69363 1.4141l0.24734 0.30111c0.27422-0.37639 0.51081-0.82805 0.70438-1.355 0.16669 0.24196 0.33875 0.50006 0.51081 0.77428zm1.5755 0.24734 0.26347-0.2581c-0.23121-0.38714-0.45166-0.73664-0.65599-1.0485 0.16131-0.48393 0.29036-1.0216 0.38714-1.6185l-0.36563-0.06452c-0.07528 0.46242-0.16669 0.89795-0.28498 1.3012-0.22583-0.32262-0.44091-0.59147-0.63448-0.81192l-0.24196 0.23121c0.24734 0.30111 0.4893 0.63448 0.73664 1.0001-0.19895 0.54845-0.45166 1.027-0.75278 1.4357l0.24734 0.29573c0.29036-0.37639 0.54307-0.82805 0.75815-1.355 0.17744 0.2796 0.36026 0.57534 0.54307 0.89258zm0.24734 0.94097c0.31724 0 0.47855-0.16669 0.47855-0.49468v-4.1833h-4.2908v4.6995h0.38176v-4.3285h3.5273v3.7262c0 0.14518-0.07528 0.22046-0.22583 0.22046l-0.51619-0.01613 0.10216 0.37639z"/>
   <path d="m73.691 95.888c-0.52694 0.19895-1.1453 0.36026-1.8497 0.47855l0.04839 0.38176c0.6775-0.12905 1.2743-0.29036 1.8013-0.49468zm-0.96248-3.8714c-0.21508 0.63448-0.46242 1.1937-0.7474 1.683-0.04839 0.0699-0.10216 0.11829-0.16131 0.14518l0.09679 0.35488c0.29573-0.04302 0.58609-0.09141 0.87645-0.14518-0.28498 0.51619-0.52694 0.87645-0.72051 1.0915-0.04302 0.04301-0.10216 0.08065-0.17206 0.11292l0.10216 0.3495c0.50544-0.0699 1.0324-0.20432 1.5862-0.3979v-0.3495c-0.38176 0.1398-0.75815 0.24734-1.1345 0.328 0.30111-0.38714 0.68288-1.0324 1.1453-1.9411l-0.33337-0.12367c-0.09678 0.19895-0.19357 0.39252-0.28498 0.57534-0.23659 0.04302-0.4678 0.08065-0.69901 0.11292 0.26885-0.40865 0.5377-0.96248 0.80654-1.6561zm3.495 2.9251h-2.2099v1.9841h0.37101v-0.23121h1.4679v0.23121h0.37101zm-1.8389 1.398v-1.0431h1.4679v1.0431zm0.16131-4.3231c-0.17206 0.56996-0.49468 1.0539-0.97323 1.4464l0.22583 0.30111c0.17744-0.14518 0.33875-0.30649 0.48393-0.47855 0.14518 0.23659 0.31724 0.46242 0.52157 0.66674-0.37101 0.26885-0.8173 0.49468-1.3335 0.68825l0.23659 0.31186c0.52694-0.20432 0.98936-0.45704 1.3765-0.7474 0.38714 0.31186 0.86032 0.54845 1.4249 0.72051l0.22046-0.31724c-0.52694-0.15056-0.98399-0.36563-1.3604-0.63986 0.37101-0.33875 0.65599-0.73127 0.85494-1.1776v-0.2796h-1.4572c0.05377-0.13442 0.10754-0.27422 0.15056-0.42478zm-0.05377 0.99474c0.03226-0.04839 0.06452-0.10216 0.09679-0.15593h1.2152c-0.17744 0.32262-0.4194 0.61298-0.72589 0.87645-0.23121-0.2097-0.42478-0.45166-0.58609-0.72051z"/>
   <path d="m79.307 92.473v0.34413h0.78504v0.40327h0.36026v-0.40327h0.86569v0.40327h0.36563v-0.40327h0.83343v-0.34413h-0.83343v-0.43016h-0.36563v0.43016h-0.86569v-0.43016h-0.36026v0.43016zm1.5109 3.3767c0.31186 0.45166 0.81192 0.82268 1.5109 1.1238l0.25809-0.30649c-0.63448-0.22583-1.1077-0.52157-1.4195-0.8872h1.3604v-0.35488h-1.5486c0.03226-0.12367 0.06452-0.2581 0.08603-0.40865h1.1023v-1.6292h-2.5756v1.6292h1.1292c-0.02689 0.1398-0.05915 0.2796-0.10216 0.40865h-1.4141v0.35488h1.2528c-0.04302 0.07528-0.09678 0.14518-0.15056 0.21508-0.23659 0.27422-0.61835 0.48393-1.156 0.6291l0.1398 0.32262c0.61835-0.17744 1.0485-0.4194 1.2958-0.73127 0.08603-0.10754 0.16669-0.23121 0.23121-0.36563zm-2.0325-1.6454c0.1398 0.22046 0.31186 0.50544 0.51081 0.86032l0.20432-0.30649c-0.24734-0.36026-0.48393-0.68288-0.71514-0.96248v-0.35488h0.56458v-0.3495h-0.56458v-1.0431h-0.36563v1.0431h-0.62373v0.3495h0.62373v0.03226c-0.16131 0.65599-0.43016 1.2367-0.80117 1.7529l0.16669 0.4194c0.2581-0.41403 0.4678-0.87645 0.63448-1.3819v2.6777h0.36563zm3.0326 0.51081h-1.8766v-0.36563h1.8766zm-1.8766-0.65599v-0.36026h1.8766v0.36026z"/>
   <path d="m83.836 92.269v0.34413h0.54845v0.80654h-0.68825v0.35488h0.66674c-0.05377 0.44091-0.23121 0.76891-0.53232 0.99474l0.29036 0.25272c0.35488-0.2796 0.5592-0.69363 0.61835-1.2475h0.70438v1.1829h0.37639v-1.1829h0.66137v-0.35488h-0.66137v-0.80654h0.54307v-0.34413zm0.91946 0.34413h0.68825v0.80654h-0.68825zm2.0432-0.22046v1.8497h0.37101v-1.8497zm-2.8337 3.0918v0.35488h1.8873v0.6291h-2.1884v0.35488h4.721v-0.35488h-2.1454v-0.6291h1.8497v-0.35488h-1.8497v-0.4678h-0.38714v0.4678zm3.7477-0.47855c0.28498 0 0.43016-0.16669 0.43016-0.49468v-2.4143h-0.37101v2.3229c0 0.16131-0.06452 0.24734-0.18819 0.24734-0.21508 0-0.43554-0.01075-0.67212-0.02688l0.08066 0.36563z"/>
  </g>
  <g fill="#fff">
   <g transform="translate(17.949 30.507)">
    <rect x="59.607" y="50.924" width="14.693" height="8.5152" fill="#fff" stroke="#1067d1" stroke-width=".26458"/>
    <g fill="#000" stroke-width=".13442" aria-label="参数">
     <path d="m61.72 54.456v0.35488h1.484c-0.38176 0.33875-0.91408 0.6076-1.5916 0.80655l0.17744 0.34413c0.83881-0.30111 1.4679-0.68288 1.8873-1.1507h0.97323c0.34413 0.46242 0.91946 0.83343 1.726 1.1238l0.16669-0.35488c-0.66674-0.18819-1.1614-0.44629-1.484-0.76891h1.3389v-0.35488h-2.4519c0.08603-0.14518 0.16131-0.29573 0.22046-0.45166 0.41403-0.02151 0.8173-0.04839 1.2044-0.0699 0.13442 0.12905 0.25809 0.25272 0.36563 0.38176l0.32262-0.22583c-0.2796-0.30649-0.68825-0.66674-1.2206-1.0808l-0.29573 0.18819c0.17744 0.14518 0.34413 0.28498 0.50006 0.42478-0.64524 0.04302-1.3227 0.08065-2.0432 0.10216 0.30649-0.19895 0.61835-0.45704 0.93022-0.77966l-0.37639-0.12905c-0.53232 0.52694-0.97323 0.83343-1.3227 0.91946l0.05915 0.33875c0.51081-0.01613 1.0055-0.03226 1.484-0.05377-0.05915 0.15056-0.1398 0.29573-0.24196 0.43553zm2.3712 0.54307c-0.328 0.3979-0.84418 0.71514-1.5432 0.95172l0.16669 0.30111c0.75815-0.26347 1.3174-0.61835 1.6776-1.07zm1.3873 0.83343c-0.44091 0.78504-1.4733 1.355-3.0971 1.6991l0.22046 0.30111c1.6507-0.3495 2.7261-0.96785 3.2208-1.8497zm-0.70438-0.38714c-0.54845 0.66137-1.3174 1.0754-2.3121 1.2367l0.22046 0.29573c0.96785-0.17206 1.7636-0.61298 2.3928-1.3281z"/>
     <path d="m70.83 54.037h0.79579c-0.02151 0.72589-0.13442 1.3604-0.34413 1.9034-0.21508-0.45167-0.38714-0.99474-0.52157-1.6238zm0.27423 2.2906c-0.24734 0.45704-0.57534 0.82805-0.99474 1.1184l0.19895 0.32262c0.40327-0.29036 0.73664-0.65061 0.99474-1.0808 0.26885 0.45166 0.59147 0.8173 0.96785 1.0861l0.2097-0.31724c-0.38714-0.26347-0.71514-0.63448-0.99474-1.1184 0.30111-0.63448 0.4678-1.4034 0.49468-2.3013h0.3495v-0.37101h-1.4195c0.04302-0.23659 0.08603-0.49468 0.11829-0.76891l-0.37639-0.064524c-0.10754 1.0216-0.32262 1.8335-0.63986 2.4358l0.24196 0.29573c0.11292-0.19357 0.22046-0.41403 0.31724-0.66137 0.14518 0.5377 0.32262 1.0109 0.53232 1.4249zm-2.5487-0.98399c-0.03764 0.10754-0.08065 0.22046-0.12905 0.33875h-0.78504v0.33875h0.63448c-0.10754 0.21508-0.23121 0.43554-0.37101 0.67212 0.26347 0.09678 0.51081 0.19895 0.7474 0.30111-0.31186 0.17744-0.69363 0.32262-1.1345 0.44091l0.18282 0.32262c0.5377-0.15056 0.98398-0.3495 1.3389-0.59684 0.31724 0.1398 0.59147 0.28498 0.82805 0.42478l0.2097-0.30111c-0.23659-0.12905-0.48393-0.24734-0.74202-0.36563 0.2796-0.25809 0.47855-0.56458 0.59684-0.91946v-0.31724h-1.1238c0.03226-0.09678 0.0699-0.19357 0.10754-0.29573zm0.42478 1.4249c-0.19357-0.08065-0.3979-0.15593-0.61298-0.23121 0.10754-0.16131 0.20432-0.33337 0.29036-0.51619h0.92484c-0.12905 0.2796-0.33337 0.53232-0.60222 0.7474zm-0.91408-3.823-0.30649 0.10216c0.12905 0.20432 0.24734 0.43554 0.36026 0.69901l0.2796-0.12905c-0.09679-0.23659-0.20432-0.46242-0.33337-0.67212zm1.6346-0.01613c-0.09679 0.22583-0.23659 0.45166-0.40865 0.68288l0.27422 0.1398c0.17206-0.22583 0.30649-0.45704 0.41403-0.69363zm-2.0486 0.94635v0.33875h0.76353c-0.16131 0.29573-0.45167 0.56458-0.86569 0.80655l0.18819 0.31186c0.46242-0.31186 0.78504-0.6775 0.96248-1.1023v1.0216h0.36026v-0.69901c0.19357 0.12905 0.42478 0.30111 0.69363 0.51619l0.19895-0.30111c-0.30111-0.18282-0.60222-0.3495-0.89258-0.49468v-0.05915h0.97861v-0.33875h-0.97861v-1.027h-0.36026v1.027z"/>
    </g>
   </g>
   <g transform="translate(-2.1705 21.992)">
    <rect x="79.726" y="50.924" width="14.693" height="8.5152" fill="#fff" stroke="#1067d1" stroke-width=".26458"/>
    <g fill="#000" stroke-width=".13442" aria-label="算子">
     <path d="m82.442 54.108v2.1131h0.68288v0.2097c0 0.04302-0.0054 0.09679-0.01075 0.15056h-1.3174v0.34413h1.2206c-0.03226 0.06452-0.0699 0.12367-0.11292 0.18282-0.15056 0.16131-0.41403 0.29573-0.79042 0.40327l0.19895 0.30649c0.41403-0.11829 0.71514-0.2796 0.89795-0.4893 0.09679-0.11292 0.16669-0.24734 0.22046-0.40327h1.5271v0.90871h0.38176v-0.90871h1.2206v-0.34413h-1.2206v-0.36026h0.63986v-2.1131zm1.07 2.1131h1.4464v0.36026h-1.4572c0.0054-0.04839 0.01075-0.09678 0.01075-0.15056zm2.0916-0.30111h-2.7853v-0.33337h2.7853zm-2.7853-0.61298v-0.30111h2.7853v0.30111zm0-0.57534v-0.32262h2.7853v0.32262zm-0.21508-1.1507h0.41403c0.10754 0.14518 0.20432 0.29573 0.29036 0.44629l0.32262-0.11829c-0.05915-0.10216-0.13442-0.2097-0.22583-0.328h0.70438v-0.328h-1.3335c0.04301-0.10216 0.09141-0.2097 0.13442-0.31724l-0.37101-0.08066c-0.14518 0.40865-0.38176 0.78504-0.70976 1.1292l0.32262 0.19895c0.17206-0.18282 0.32262-0.38714 0.45167-0.60222zm2.2099-0.01613h0.40865c0.11829 0.15056 0.22046 0.30649 0.30649 0.4678l0.32262-0.11829c-0.06452-0.10754-0.1398-0.22583-0.23659-0.3495h0.89795v-0.328h-1.5324l0.11292-0.29036-0.37639-0.08066c-0.11829 0.36564-0.31186 0.70439-0.58071 1.0055l0.31724 0.20432c0.13442-0.15593 0.25272-0.328 0.36026-0.51081z"/>
     <path d="m87.735 55.205v0.37639h2.2637v1.597c0 0.16131-0.08603 0.24734-0.25809 0.24734-0.31186 0-0.59684-0.0054-0.86569-0.01613l0.10216 0.37639h0.91946c0.328 0 0.49468-0.16131 0.49468-0.48393v-1.7206h2.0432v-0.37639h-2.0432v-0.56458c0.54845-0.36026 1.0324-0.74202 1.4572-1.1453v-0.36563h-3.5488v0.36563h3.0219c-0.4194 0.36563-0.86032 0.68288-1.3227 0.94635v0.76353z"/>
    </g>
   </g>
   <rect x="62.862" y="72.916" width="14.693" height="17.03" stroke="#1067d1" stroke-width=".26458"/>
  </g>
  <rect x="106.81" y="41.365" width="49.014" height="57.15" fill="#e6e6e6"/>
  <g stroke-width=".13442" aria-label="训练方法">
   <path d="m122.75 43.609v4.2048h0.37102v-4.2048zm1.1238-0.26347v4.8339h0.38177v-4.8339zm-2.1938 0.01613v2.3659c-0.0108 1.0162-0.22584 1.7529-0.65599 2.2153l0.29035 0.25809c0.47855-0.52157 0.72589-1.3442 0.73665-2.4734v-2.3659zm-1.4894-0.0699-0.26885 0.26347c0.38714 0.29036 0.699 0.56996 0.92484 0.83343l0.26347-0.26885c-0.24734-0.2796-0.55383-0.55383-0.91946-0.82805zm-0.62911 1.5916v0.37101h0.79042v2.0916c0 0.09141-0.043 0.17206-0.1183 0.24196l0.15056 0.34413c0.32262-0.23659 0.62373-0.50544 0.90871-0.80655l-0.10217-0.40327c-0.16131 0.17206-0.31724 0.328-0.46779 0.4678v-2.3067z"/>
   <path d="m127.16 47.077c-0.48393 0.20432-1.0593 0.37101-1.7152 0.4893l0.0484 0.38714c0.62373-0.12905 1.1829-0.29036 1.6669-0.49468zm-0.81192-3.8284c-0.19357 0.63448-0.41941 1.1937-0.68825 1.683-0.0484 0.0699-0.10217 0.11829-0.16669 0.15056l0.0968 0.35488c0.2796-0.04839 0.55382-0.10216 0.82805-0.15593-0.26885 0.50544-0.50006 0.86032-0.68825 1.0754-0.0484 0.04302-0.10754 0.08065-0.17207 0.11292l0.10217 0.36026c0.49468-0.07528 1.0055-0.2097 1.5432-0.41403v-0.3495c-0.36026 0.13442-0.72052 0.24196-1.0808 0.31724 0.29035-0.38176 0.66674-1.0216 1.1184-1.9196l-0.35488-0.13442c-0.0968 0.2097-0.19358 0.40865-0.29036 0.60222-0.21508 0.04302-0.43016 0.08065-0.64524 0.11292 0.2581-0.41403 0.51081-0.96248 0.76891-1.6507zm1.4625 3.2369c-0.15593 0.44091-0.38176 0.87107-0.67749 1.2958l0.33337 0.18819c0.25809-0.37101 0.48393-0.8173 0.68287-1.3442zm2.0164-0.0054-0.34413 0.11292c0.21508 0.3979 0.41403 0.85494 0.59147 1.3711l0.32799-0.14518c-0.16131-0.47317-0.35488-0.91946-0.57533-1.3389zm-1.1991 1.64c0.30649 0 0.46242-0.14518 0.46242-0.43016v-1.5163h1.1453v-0.34413h-1.1453v-1.0431h-0.72051c0.0645-0.18282 0.12905-0.38176 0.19357-0.58609h1.6722v-0.36026h-1.5647c0.0484-0.17206 0.0968-0.3495 0.14518-0.5377l-0.37639-0.0699c-0.0538 0.2097-0.10216 0.41403-0.15593 0.6076h-1.1937v0.36026h1.0862c-0.0645 0.20432-0.12905 0.3979-0.19357 0.58609h-0.69901v0.3495h0.55921c-0.11292 0.25809-0.23121 0.49468-0.34951 0.70438l0.086 0.33337h1.1399v1.398c0 0.1398-0.0699 0.2097-0.20432 0.2097l-0.51619-0.01613 0.0968 0.35488zm-0.39252-2.9842h0.48393v0.69363h-0.79579c0.10754-0.21508 0.2097-0.44629 0.31186-0.69363z"/>
   <path d="m131.48 44.033v0.37101h1.5002c-5e-3 0.18282-0.0161 0.44091-0.0323 0.77966-0.0269 0.51081-0.12905 0.97323-0.31187 1.3873-0.18819 0.41403-0.56996 0.86032-1.1399 1.3442l0.2796 0.26885c0.47317-0.38176 0.83881-0.80117 1.1023-1.2636 0.19357-0.35488 0.32799-0.7474 0.39789-1.1829h1.8819c-0.0108 0.74202-0.0269 1.2313-0.0591 1.4572-0.0645 0.37639-0.23121 0.56996-0.50544 0.58071-0.18819 0-0.4194-0.0054-0.69901-0.01613l0.1183 0.3495c0.23658 0.01075 0.44629 0.02151 0.61835 0.02151 0.42478-0.01613 0.68825-0.25272 0.79579-0.70976 0.0699-0.30111 0.11292-0.98399 0.12367-2.0486h-2.2314v-0.01075l0.0484-0.9571h2.8337v-0.37101h-2.011c-0.12905-0.31724-0.26885-0.59147-0.41941-0.8173l-0.36563 0.13442c0.15593 0.21508 0.28498 0.44629 0.39252 0.68288z"/>
   <path d="m140.16 43.238v0.86569h-1.2743v0.37639h1.2743v1.0055h-1.5324v0.37639h1.2743c-0.40865 0.96248-0.74202 1.5539-0.99474 1.7744-0.0215 0.01075-0.0484 0.02688-0.0806 0.03764l0.0914 0.33875c0.95173-0.09141 1.8336-0.21508 2.6455-0.36563 0.0753 0.17206 0.14518 0.3495 0.22046 0.5377l0.36563-0.16131c-0.24201-0.61298-0.52699-1.1937-0.84961-1.7314l-0.37101 0.12367c0.16131 0.26885 0.32262 0.56458 0.47855 0.8872-0.66674 0.12905-1.3281 0.23121-1.9895 0.30111 0.2581-0.33875 0.55921-0.91946 0.90333-1.7421h1.7636v-0.37639h-1.5271v-1.0055h1.3819v-0.37639h-1.3819v-0.86569zm-2.4411 0.08603-0.27422 0.26347c0.37638 0.28498 0.66674 0.55383 0.88182 0.81192l0.27422-0.2796c-0.23658-0.26885-0.53232-0.53232-0.88182-0.79579zm-0.12905 1.2582-0.27422 0.26347c0.34412 0.29036 0.61297 0.5592 0.80654 0.81192l0.27961-0.27423c-0.22046-0.26885-0.48931-0.5377-0.81193-0.80117zm0.61835 1.4894c-0.22583 0.64524-0.50005 1.2743-0.81192 1.8873l0.38714 0.16669c0.28498-0.59684 0.54308-1.2367 0.77429-1.9142z"/>
  </g>
  <rect x="111.86" y="63.786" width="15.232" height="15.529" fill="#fff" stroke="#2a63a8" stroke-width=".26458"/>
  <g stroke-width=".13442" aria-label="损失 函数">
   <path d="m118.5 67.556h-2.6132v2.0486h0.37639v-1.7045h1.8604v1.6991h0.37639zm-2.4358-1.597v1.2098h2.2745v-1.2098zm1.8981 0.8872h-1.5217v-0.55383h1.5217zm-0.97323 1.355v0.56458c-0.0108 0.40865-0.11829 0.73664-0.32262 0.99474-0.22045 0.24734-0.6076 0.44091-1.1614 0.59147l0.2097 0.328c0.57533-0.16131 0.98936-0.38714 1.2474-0.67212 0.2581-0.31186 0.3979-0.72589 0.41403-1.2421v-0.56458zm-2.4519 2.425c0.31724 0 0.47855-0.16131 0.47855-0.47855v-1.5755c0.20433-0.09141 0.40865-0.19357 0.61298-0.30111v-0.39252c-0.19895 0.10754-0.40328 0.2097-0.61298 0.30649v-1.07h0.63986v-0.37101h-0.63986v-0.98398h-0.38176v0.98398h-0.72052v0.37101h0.72052v1.2259c-0.26347 0.10216-0.5377 0.18819-0.8173 0.2581l0.0968 0.38714c0.24197-0.07528 0.48393-0.16131 0.72052-0.25272v1.3174c0 0.15056-0.0807 0.23121-0.23121 0.23121-0.14518 0-0.29574-0.01075-0.45167-0.02689l0.0807 0.37101zm2.995-1.027-0.19357 0.29036c0.41403 0.19357 0.8173 0.46242 1.2098 0.80117l0.21508-0.328c-0.37101-0.30111-0.77966-0.55383-1.2313-0.76353z"/>
   <path d="m120.86 65.868c-0.24196 0.72051-0.60222 1.2958-1.0862 1.726l0.328 0.28498c0.23121-0.21508 0.44091-0.48393 0.63448-0.80117h1.2851v0.3495c-0.0108 0.2581-0.0323 0.50006-0.0753 0.72589h-2.0809v0.37101h2.0002c-0.0807 0.27423-0.19358 0.52157-0.33338 0.73664-0.33337 0.44629-0.92484 0.80654-1.7636 1.0861l0.2097 0.328c0.84956-0.27422 1.4572-0.65599 1.8282-1.1453 0.18819-0.2581 0.33337-0.56458 0.43553-0.91946 0.29036 0.87107 1.0216 1.5539 2.1938 2.0594l0.21508-0.33875c-1.1238-0.43016-1.8174-1.0324-2.0809-1.8067h2.0002v-0.37101h-2.2207c0.0376-0.22583 0.0592-0.4678 0.0699-0.72589v-0.3495h1.8013v-0.37639h-1.8013v-0.94097h-0.39789v0.94097h-1.0862c0.10216-0.21508 0.19895-0.44629 0.28498-0.69363z"/>
   <path d="m114.76 76.604c0.51619-0.328 1.0001-0.70976 1.4572-1.1453v0.83343c0 0.17206-0.0753 0.2581-0.22046 0.2581-0.16131 0-0.31186-0.0054-0.44629-0.01075l0.0968 0.36026h0.4893c0.29036 0 0.44091-0.16131 0.44091-0.47317v-0.90334c0.328 0.25272 0.72589 0.60222 1.1937 1.0539l0.22583-0.33875c-0.48392-0.41403-0.9571-0.77966-1.4195-1.1023v-0.82268c0.52695-0.29036 1.0055-0.58071 1.4356-0.87645v-0.36563h-3.3283v0.36563h2.7476c-0.26885 0.17206-0.67212 0.39252-1.2152 0.66137v0.91946c-0.50544 0.48393-1.0324 0.8872-1.5916 1.2098zm3.3445-2.5541v3.1025h-3.5811v-3.1079h-0.37101v3.7585h0.37101v-0.29573h3.5811v0.30111h0.37101v-3.7585zm-3.0004 0.16669-0.28498 0.17744c0.31187 0.29573 0.56459 0.56458 0.7474 0.81192l0.29574-0.20432c-0.17744-0.22583-0.43016-0.48393-0.75816-0.78504zm2.4465-0.03764c-0.20432 0.328-0.45166 0.61298-0.73126 0.84956l0.2796 0.19895c0.29036-0.25272 0.54845-0.55383 0.76353-0.89795z"/>
   <path d="m123.07 74.061h0.79579c-0.0215 0.72589-0.13442 1.3604-0.34412 1.9034-0.21508-0.45166-0.38715-0.99474-0.52157-1.6238zm0.27423 2.2906c-0.24735 0.45704-0.57534 0.82805-0.99474 1.1184l0.19894 0.32262c0.40328-0.29036 0.73665-0.65061 0.99474-1.0808 0.26885 0.45167 0.59147 0.8173 0.96786 1.0861l0.2097-0.31724c-0.38714-0.26347-0.71514-0.63448-0.99474-1.1184 0.30111-0.63448 0.4678-1.4034 0.49468-2.3013h0.3495v-0.37101h-1.4195c0.043-0.23659 0.086-0.49468 0.1183-0.76891l-0.37639-0.06452c-0.10754 1.0216-0.32262 1.8335-0.63986 2.4358l0.24196 0.29573c0.11292-0.19357 0.22046-0.41403 0.31725-0.66137 0.14517 0.5377 0.32261 1.0109 0.53232 1.4249zm-2.5487-0.98398c-0.0376 0.10754-0.0807 0.22046-0.12905 0.33875h-0.78503v0.33875h0.63448c-0.10754 0.21508-0.23121 0.43553-0.37101 0.67212 0.26347 0.09678 0.51081 0.19895 0.7474 0.30111-0.31187 0.17744-0.69363 0.32262-1.1345 0.44091l0.18281 0.32262c0.5377-0.15056 0.98399-0.3495 1.3389-0.59684 0.31724 0.1398 0.59147 0.28498 0.82805 0.42478l0.2097-0.30111c-0.23658-0.12905-0.48392-0.24734-0.74202-0.36563 0.2796-0.2581 0.47855-0.56458 0.59685-0.91946v-0.31724h-1.1238c0.0323-0.09679 0.0699-0.19357 0.10754-0.29573zm0.42478 1.4249c-0.19357-0.08065-0.39789-0.15593-0.61297-0.23121 0.10754-0.16131 0.20432-0.33337 0.29035-0.51619h0.92484c-0.12904 0.2796-0.33337 0.53232-0.60222 0.7474zm-0.91408-3.823-0.30649 0.10216c0.12905 0.20432 0.24734 0.43553 0.36026 0.69901l0.2796-0.12905c-0.0968-0.23659-0.20433-0.46242-0.33337-0.67212zm1.6346-0.01613c-0.0968 0.22583-0.23659 0.45167-0.40865 0.68288l0.27422 0.1398c0.17206-0.22583 0.30649-0.45704 0.41403-0.69363zm-2.0486 0.94635v0.33875h0.76353c-0.16131 0.29573-0.45167 0.56458-0.86569 0.80654l0.18819 0.31186c0.46242-0.31186 0.78504-0.6775 0.96248-1.1023v1.0216h0.36026v-0.69901c0.19357 0.12905 0.42478 0.30111 0.69363 0.51619l0.19894-0.30111c-0.30111-0.18282-0.60222-0.3495-0.89257-0.49468v-0.05915h0.97861v-0.33875h-0.97861v-1.027h-0.36026v1.027z"/>
  </g>
  <rect x="132.37" y="52.122" width="19.549" height="9.5943" fill="#fff" stroke="#2a63a8" stroke-width=".26458"/>
  <g stroke-width=".13442" aria-label="求导器">
   <path d="m133.87 55.215v0.37101h2.14v1.0055c-0.63448 0.78504-1.3658 1.398-2.1938 1.8497l0.2097 0.3495c0.75815-0.46242 1.4195-1.0431 1.9841-1.7314v1.4679c0 0.16669-0.0753 0.25272-0.22045 0.25272-0.21508 0-0.43554-0.01075-0.67213-0.02689l0.0807 0.37101h0.72589c0.32262 0 0.48393-0.16669 0.48393-0.50006v-2.0916c0.44091 0.86569 1.0915 1.597 1.9626 2.1992l0.26885-0.31724c-0.59147-0.37639-1.0915-0.8173-1.4948-1.3174 0.41403-0.28498 0.76891-0.61835 1.0646-1.0001l-0.28498-0.25272c-0.27422 0.36563-0.60222 0.69363-0.98398 0.98399-0.20971-0.29036-0.38715-0.60222-0.53232-0.93022v-0.31186h2.054v-0.37101h-0.8173l0.25272-0.25272c-0.21508-0.23659-0.48393-0.47855-0.80655-0.71514l-0.25272 0.23659c0.32262 0.25809 0.58609 0.50006 0.78504 0.73127h-1.2152v-1.0055h-0.3979v1.0055zm0.52156 0.74202-0.26885 0.25272c0.39252 0.3495 0.69901 0.6775 0.91947 0.98399l0.26884-0.26347c-0.24734-0.32262-0.55382-0.65061-0.91946-0.97323z"/>
   <path d="m139.66 57.205v0.37639h3.2746v1.0431c0 0.12905-0.0807 0.19357-0.23659 0.19357-0.20432 0-0.41403-0.01075-0.63986-0.02688l0.086 0.38176h0.68826c0.32261 0 0.4893-0.15056 0.4893-0.45166v-1.1399h1.1829v-0.37639h-1.1829v-0.33875h-0.38714v0.33875zm4.0327-2.7691h-3.4681v1.8067c0 0.29036 0.15593 0.44091 0.47855 0.44091h3.1294c0.22583-0.01075 0.37639-0.09141 0.45167-0.25272 0.043-0.10754 0.0806-0.2796 0.10754-0.52157l-0.36564-0.11829c-0.0215 0.22583-0.0538 0.36563-0.086 0.42478-0.043 0.06452-0.11291 0.10216-0.22045 0.10754h-2.8767c-0.15056 0-0.23121-0.07528-0.23121-0.22046v-0.38714h3.081zm-3.081 0.92484v-0.57534h2.6939v0.57534zm0.28498 2.382-0.27423 0.26347c0.37639 0.30649 0.6775 0.59684 0.89258 0.87107l0.29035-0.29036c-0.24734-0.2796-0.54845-0.56458-0.9087-0.84418z"/>
   <path d="m146.05 54.43v1.3066h1.64v-1.3066zm1.2851 0.97861h-0.93559v-0.64524h0.93559zm0.95172-0.97861v1.3066h1.6722v-1.3066zm1.3227 0.97861h-0.96786v-0.64524h0.96786zm-3.9951 0.86569v0.34413h1.484c-0.37638 0.32262-0.90333 0.58609-1.5916 0.79041l0.17744 0.31724c0.15056-0.04839 0.29573-0.09679 0.44091-0.15056v1.5862h0.33875v-0.23121h0.91946v0.23121h0.34413v-1.6937h-1.3496c0.50544-0.22583 0.90871-0.50544 1.2098-0.84956h0.90871c0.26884 0.328 0.66674 0.61297 1.1829 0.84956h-1.4356v1.6937h0.34412v-0.23121h1.0055v0.23121h0.34412v-1.5808c0.1183 0.04302 0.24197 0.09141 0.37639 0.13442l0.15593-0.328c-0.69363-0.18819-1.2152-0.44629-1.5647-0.76891h1.4518v-0.34413h-0.74202c-0.086-0.16669-0.18282-0.32262-0.29574-0.47317l-0.32799 0.10754c0.086 0.10754 0.16668 0.23121 0.24196 0.36563h-1.3873c0.0753-0.12905 0.14518-0.2581 0.19895-0.3979l-0.37101-0.03764c-0.0645 0.15056-0.14518 0.29573-0.24734 0.43554zm0.84956 2.3229v-0.80655h0.91946v0.80655zm2.1239 0v-0.80655h1.0055v0.80655z"/>
  </g>
  <rect x="132.37" y="81.257" width="19.549" height="9.5943" fill="#fff" stroke="#2a63a8" stroke-width=".26458"/>
  <g stroke-width=".13442" aria-label="优化器">
   <path d="m134.49 85.238v3.0541h0.38714v-3.6456c0.19357-0.3495 0.36026-0.72051 0.48931-1.1077l-0.34951-0.16131c-0.26347 0.82805-0.68287 1.5647-1.2636 2.2099l0.11291 0.38714c0.22584-0.23121 0.43554-0.47855 0.62373-0.73664zm0.77428-0.56458v0.37639h1.0862c-0.11829 1.3335-0.53769 2.3229-1.2582 2.9788l0.28498 0.24734c0.77428-0.71514 1.226-1.7905 1.3442-3.2262h0.33875v2.71c0 0.29573 0.1398 0.44629 0.42478 0.44629h0.66675c0.1398-0.0054 0.25272-0.05915 0.32799-0.15593 0.0753-0.11829 0.13443-0.4678 0.17207-1.0378l-0.34951-0.11292c-0.0161 0.49468-0.0484 0.77966-0.0968 0.86032-0.043 0.05915-0.0914 0.09141-0.15056 0.09141h-0.46779c-0.10754 0-0.15594-0.05377-0.15594-0.16131v-2.6401h1.1184v-0.37639h-1.8067c5e-3 -0.10754 0.0108-0.21508 0.0108-0.32262v-0.97323h-0.37102v0.97323c0 0.10754-5e-3 0.21508-0.0108 0.32262zm2.1938-1.1991-0.25272 0.24196c0.35488 0.25272 0.62911 0.49468 0.83343 0.72589l0.26347-0.26347c-0.22583-0.23659-0.51081-0.47317-0.84418-0.70438z"/>
   <path d="m141.33 83.324c-0.34413 0.84956-0.89795 1.6023-1.6615 2.2583l0.12367 0.40327c0.28498-0.23659 0.54845-0.4893 0.79041-0.75278v3.0702h0.38714v-3.5434c0.29036-0.3979 0.53232-0.8173 0.72052-1.269zm2.4788 4.8823c0.2581 0 0.43554-0.06452 0.53232-0.19357 0.0914-0.12905 0.15594-0.50544 0.19358-1.1238l-0.36026-0.11829c-0.0215 0.53232-0.0592 0.84418-0.1183 0.93022-0.0645 0.08603-0.17206 0.13442-0.31186 0.13442h-0.87107c-0.18282 0-0.26885-0.08603-0.26885-0.25272v-1.8174c0.66675-0.4194 1.2528-0.89795 1.7529-1.4357l-0.26885-0.30649c-0.42478 0.47855-0.91947 0.90871-1.484 1.2851v-1.9196h-0.38714v2.1562c-0.27422 0.16131-0.56458 0.30649-0.86569 0.44629l0.17206 0.36563c0.23659-0.11292 0.4678-0.23121 0.69363-0.36026v1.64c0 0.37639 0.1882 0.56996 0.56458 0.56996z"/>
   <path d="m146.12 83.566v1.3066h1.64v-1.3066zm1.2851 0.97861h-0.93559v-0.64524h0.93559zm0.95172-0.97861v1.3066h1.6722v-1.3066zm1.3227 0.97861h-0.96786v-0.64524h0.96786zm-3.9951 0.86569v0.34413h1.484c-0.37638 0.32262-0.90333 0.58609-1.5916 0.79041l0.17744 0.31724c0.15056-0.04839 0.29573-0.09679 0.44091-0.15056v1.5862h0.33875v-0.23121h0.91946v0.23121h0.34413v-1.6937h-1.3496c0.50544-0.22583 0.90871-0.50544 1.2098-0.84956h0.90871c0.26885 0.328 0.66674 0.61297 1.1829 0.84956h-1.4356v1.6937h0.34413v-0.23121h1.0055v0.23121h0.34412v-1.5808c0.1183 0.04302 0.24197 0.09141 0.37639 0.13442l0.15593-0.328c-0.69362-0.18819-1.2152-0.44629-1.5647-0.76891h1.4518v-0.34413h-0.74202c-0.086-0.16669-0.18282-0.32262-0.29574-0.47317l-0.32799 0.10754c0.086 0.10754 0.16668 0.23121 0.24196 0.36563h-1.3873c0.0753-0.12905 0.14518-0.2581 0.19895-0.3979l-0.37101-0.03764c-0.0645 0.15056-0.14518 0.29573-0.24734 0.43554zm0.84956 2.3229v-0.80655h0.91946v0.80655zm2.1239 0v-0.80655h1.0055v0.80655z"/>
  </g>
  <g stroke-width=".13442" aria-label="模型 结构">
   <path d="m66.487 76.143v0.34413h0.78504v0.40327h0.36026v-0.40327h0.86569v0.40327h0.36563v-0.40327h0.83343v-0.34413h-0.83343v-0.43016h-0.36563v0.43016h-0.86569v-0.43016h-0.36026v0.43016zm1.5109 3.3767c0.31186 0.45166 0.81192 0.82268 1.5109 1.1238l0.25809-0.30649c-0.63448-0.22583-1.1077-0.52157-1.4195-0.8872h1.3604v-0.35488h-1.5486c0.03226-0.12367 0.06452-0.2581 0.08603-0.40865h1.1023v-1.6292h-2.5756v1.6292h1.1292c-0.02688 0.1398-0.05915 0.2796-0.10216 0.40865h-1.4141v0.35488h1.2528c-0.04302 0.07528-0.09678 0.14518-0.15056 0.21508-0.23659 0.27422-0.61835 0.48393-1.156 0.6291l0.1398 0.32262c0.61835-0.17744 1.0485-0.4194 1.2958-0.73127 0.08603-0.10754 0.16669-0.23121 0.23121-0.36563zm-2.0325-1.6454c0.1398 0.22046 0.31186 0.50544 0.51081 0.86032l0.20432-0.30649c-0.24734-0.36026-0.48393-0.68288-0.71514-0.96248v-0.35488h0.56458v-0.3495h-0.56458v-1.0431h-0.36563v1.0431h-0.62373v0.3495h0.62373v0.03226c-0.16131 0.65599-0.43016 1.2367-0.80117 1.7529l0.16669 0.4194c0.2581-0.41402 0.4678-0.87644 0.63448-1.3819v2.6777h0.36563zm3.0326 0.51081h-1.8766v-0.36563h1.8766zm-1.8766-0.65599v-0.36026h1.8766v0.36026z"/>
   <path d="m71.017 75.939v0.34413h0.54845v0.80654h-0.68825v0.35488h0.66674c-0.05377 0.44091-0.23121 0.76891-0.53232 0.99474l0.29036 0.25272c0.35488-0.2796 0.5592-0.69363 0.61835-1.2475h0.70438v1.1829h0.37639v-1.1829h0.66137v-0.35488h-0.66137v-0.80654h0.54307v-0.34413zm0.91946 0.34413h0.68825v0.80654h-0.68825zm2.0432-0.22046v1.8497h0.37101v-1.8497zm-2.8337 3.0918v0.35488h1.8873v0.6291h-2.1884v0.35488h4.721v-0.35488h-2.1454v-0.6291h1.8497v-0.35488h-1.8497v-0.4678h-0.38714v0.4678zm3.7477-0.47855c0.28498 0 0.43016-0.16669 0.43016-0.49468v-2.4143h-0.37101v2.3229c0 0.16131-0.06452 0.24734-0.18819 0.24734-0.21508 0-0.43553-0.01075-0.67212-0.02689l0.08065 0.36563z"/>
   <path d="m66.826 86.664c-0.54845 0.19895-1.1829 0.36026-1.9142 0.47855l0.04839 0.37639c0.69901-0.12905 1.3174-0.29036 1.8658-0.4893zm-0.99474-3.8714c-0.21508 0.63986-0.47317 1.2044-0.77428 1.6991-0.04839 0.0699-0.10216 0.11829-0.16131 0.14518l0.09678 0.35488c0.31186-0.04302 0.61835-0.08603 0.92484-0.13442-0.30111 0.50544-0.55383 0.86032-0.75815 1.07-0.04839 0.04302-0.10754 0.08066-0.17744 0.11292l0.10216 0.3495c0.5377-0.0699 1.0969-0.20432 1.6776-0.40327v-0.34413c-0.3979 0.13442-0.80117 0.24196-1.2098 0.32262 0.328-0.38714 0.73664-1.0324 1.2259-1.9411l-0.33875-0.12367c-0.10754 0.20432-0.21508 0.40327-0.31724 0.59684-0.2581 0.04302-0.51081 0.08066-0.76353 0.11292 0.2796-0.4194 0.5592-0.97861 0.83343-1.6776zm0.93022 0.68288v0.37639h1.2851v0.79579h-1.1077v0.37639h2.624v-0.37639h-1.1238v-0.79579h1.2797v-0.37639h-1.2797v-0.65061h-0.39252v0.65061zm2.6455 2.0863h-2.296v2.1615h0.38176v-0.25809h1.5378v0.25809h0.37639zm-1.9142 1.5378v-1.1722h1.5378v1.1722z"/>
   <path d="m73.34 82.803c-0.12367 0.76353-0.35488 1.4088-0.68825 1.9357l0.24734 0.32262c0.21508-0.32262 0.3979-0.69363 0.54845-1.1077h1.6346c-0.0054 1.6669-0.03226 2.6562-0.08065 2.9681-0.04839 0.2796-0.20432 0.42478-0.46242 0.42478-0.17206 0-0.37101-0.01075-0.6076-0.02151l0.08603 0.3495c0.27422 0.01075 0.4678 0.01613 0.58071 0.01613 0.44629 0 0.69901-0.22046 0.76353-0.65599 0.05377-0.43016 0.08603-1.5808 0.08603-3.4413h-1.8873c0.06452-0.23659 0.11829-0.48393 0.16131-0.74202zm-0.44091 3.7746c0.52694-0.10754 1.0001-0.21508 1.4088-0.328 0.04302 0.15056 0.09141 0.31186 0.1398 0.48393l0.33875-0.15056c-0.1398-0.47855-0.30111-0.93022-0.48393-1.3496l-0.32262 0.11292c0.07528 0.18282 0.15593 0.38714 0.23121 0.61297-0.25809 0.06452-0.55383 0.12905-0.87645 0.19357 0.15593-0.28498 0.36563-0.78504 0.62911-1.5002l-0.33875-0.12367c-0.38176 1.0754-0.64524 1.6507-0.79579 1.7314zm-0.91408-1.5808c0.15056 0.19357 0.33337 0.45166 0.54307 0.76353l0.21508-0.328c-0.2581-0.31724-0.51081-0.60222-0.75815-0.86032v-0.33875h0.66137v-0.37101h-0.66137v-1.0485h-0.38176v1.0485h-0.77966v0.37101h0.75278c-0.17206 0.6775-0.45704 1.2851-0.86032 1.8174l0.16669 0.4194c0.30111-0.44629 0.5377-0.94097 0.72051-1.4894v2.7369h0.38176z"/>
  </g>
 </g>
 <g transform="translate(-52.276 -41.346)" fill="none" stroke="#000" stroke-width=".265">
  <path d="m59.369 55.138h-6.9605v26.614h9.9631" marker-end="url(#marker1279)"/>
  <path d="m92.392 77.118h18.342" marker-end="url(#marker1269)"/>
  <path d="m87.005 59.526v7.0914h23.592" marker-end="url(#marker1259)"/>
  <path d="m119.29 63.605v-7.0789h12.379" marker-end="url(#marker1249)"/>
  <path d="m142.15 61.769v18.758" marker-end="url(#marker1239)"/>
  <path d="m132.21 85.808h-39.275" marker-end="url(#marker1229)"/>
 </g>
</svg>
